<svg id="Capa_1" enable-background="new 0 0 512 512" height="512" viewBox="0 0 512 512" width="512" xmlns="http://www.w3.org/2000/svg"><g><path d="m325.698 361.679v-186.302h118.802c2.203 0 4.278 1.037 5.6 2.8l21.9 29.2 4 32 20 57.6v64.702z" fill="#fd6930"/><path d="m325.698 175.377h30.906v186.302h-30.906z" fill="#fd5426"/><path d="m496 296.977h-37.024c-1.985 0-3.877-.843-5.204-2.319l-7.482-8.319c-5.276-5.866-12.794-9.215-20.683-9.215h-50.607c-3.866 0-7-3.134-7-7v-55.747c0-3.866 3.134-7 7-7h97l22.6 30.133c.909 1.212 1.4 2.685 1.4 4.2z" fill="#9dc6fb"/><g><g><path d="m375.163 315.903h-7.163c-4.267 0-7.726-3.459-7.726-7.726s3.459-7.726 7.726-7.726h7.164c4.267 0 7.726 3.459 7.726 7.726s-3.459 7.726-7.727 7.726z" fill="#f1f6f7"/></g></g><path d="m336 323.336h-299.396l-20.604-10.302v-210.657c0-3.866 3.134-7 7-7h129l24 10 24-10h129c3.866 0 7 3.134 7 7z" fill="#edba94"/><path d="m16 102.377v210.657l20.604 10.302v-227.959h-13.604c-3.866 0-7 3.134-7 7z" fill="#e5a87f"/><path d="m192.227 138.195-13.453-8.969c-1.679-1.12-3.868-1.12-5.547 0l-13.453 8.969c-3.323 2.215-7.773-.167-7.773-4.16v-38.658h48v38.657c-.001 3.994-4.452 6.376-7.774 4.161z" fill="#fd6930"/><path d="m131.206 217.104-23.949-23.949c-2.734-2.734-7.166-2.734-9.899 0l-23.948 23.949c-4.41 4.41-1.287 11.95 4.95 11.95h.949c3.866 0 7 3.134 7 7v44.324c0 3.866 3.134 7 7 7h18c3.866 0 7-3.134 7-7v-44.324c0-3.866 3.134-7 7-7h.949c6.235 0 9.358-7.54 4.948-11.95z" fill="#f1f6f7"/><path d="m281 284.206h-50c-3.866 0-7-3.134-7-7v-18c0-3.866 3.134-7 7-7h50c3.866 0 7 3.134 7 7v18c0 3.866-3.134 7-7 7z" fill="#e5a87f"/><g><g><path d="m288 227.932h-64c-4.267 0-7.726-3.459-7.726-7.726s3.459-7.726 7.726-7.726h64c4.267 0 7.726 3.459 7.726 7.726s-3.459 7.726-7.726 7.726z" fill="#e5a87f"/></g></g><path d="m16 313.034h320v48.645h-320z" fill="#9dc6fb"/><path d="m16 313.034h20.604v48.645h-20.604z" fill="#80b4fb"/><path d="m505 383.377h-498c-3.866 0-7-3.134-7-7v-18c0-3.866 3.134-7 7-7h498c3.866 0 7 3.134 7 7v18c0 3.866-3.134 7-7 7z" fill="#897e8b"/><circle cx="422.632" cy="364.206" fill="#685e67" r="51.172"/><circle cx="422.632" cy="364.206" fill="#f1f6f7" r="19.825"/><circle cx="86.385" cy="365.451" fill="#685e67" r="51.172"/><circle cx="86.385" cy="365.451" fill="#f1f6f7" r="19.825"/></g></svg>