<svg xmlns="http://www.w3.org/2000/svg" version="1.1" xmlns:xlink="http://www.w3.org/1999/xlink" width="512" height="512" x="0" y="0" viewBox="0 0 512 512" style="enable-background:new 0 0 512 512" xml:space="preserve" class=""><g><g fill-rule="evenodd"><g paint-order="fill markers stroke"><path fill="#000000" d="M222.784 0c15.112 0 27.363 12.25 27.363 27.36-.02 15.09-12.27 27.308-27.363 27.288H86.831c-20.916-.493-32.222 14.01-32.215 32.205v338.27c-.007 18.195 11.3 32.698 32.215 32.205h135.953c15.092-.02 27.343 12.197 27.363 27.288 0 15.11-12.25 27.36-27.363 27.36-63.855 0-89.598-.147-145.721-.147-38.22 0-77.092-23.25-77.092-75.578V75.725C-.03 23.397 38.842.147 77.063.147 133.186.147 158.929 0 222.784 0z" opacity="1" data-original="#f6616a"></path><path fill="#000000" d="M54.396 255.887v169.068c-.007 18.189 11.305 32.685 32.23 32.193h136.019c15.1-.02 27.356 12.192 27.376 27.277 0 15.105-12.257 27.35-27.376 27.35-63.886 0-89.64-.147-145.791-.147-38.24 0-77.13-23.242-77.13-75.549V255.887z" opacity="1" data-original="#f64650" class=""></path></g><g stroke-width=".993"><path fill="#000000" d="M328.827 96.58c-10.707 10.707-9.463 29.185 2.788 41.434l79.649 79.643c4.08 4.08 1.19 11.056-4.58 11.056H164.89c-17.324 0-31.271 12.189-31.271 27.329s13.947 27.329 31.271 27.329h241.793c5.77 0 8.66 6.976 4.58 11.056l-79.648 79.643c-12.25 12.249-13.495 30.727-2.788 41.433 13.386 11.4 30.79 7.568 41.44-2.785l131.392-131.38c6.968-6.967 10.37-15.947 10.37-25.296s-3.402-18.33-10.37-25.296L370.267 99.366c-12.616-10.955-29.863-13.988-41.44-2.785z" opacity="1" data-original="#f6616a"></path><path fill="#000000" d="m133.62 255.987-.002.055c0 15.14 13.947 27.329 31.271 27.329h241.793c5.77 0 8.66 6.976 4.58 11.056l-79.648 79.643c-12.25 12.249-13.495 30.727-2.788 41.433 13.386 11.4 30.79 7.568 41.44-2.785l131.392-131.38c6.968-6.967 10.37-15.947 10.37-25.296l-.002-.055z" opacity="1" data-original="#f64650" class=""></path></g></g></g></svg>