<svg id="Layer_1" height="512" viewBox="0 0 512 512" width="512" xmlns="http://www.w3.org/2000/svg" data-name="Layer 1"><path d="m403.8565 117.1349c-16.2545-4.6755-40.7474-4.8984-58.1149.0743-4.4535-4.676-5.6409-9.6487-4.1564-14.25 2.82-9.3519 16.0316-16.9965 33.1767-16.9965 26.1854-.0004 42.2808 17.658 29.0946 31.1722z" fill="#fc9b16"/><path d="m408.31 108.9707a15.6856 15.6856 0 0 1 -4.4535 8.1642c-16.2545-4.6755-40.7474-4.8984-58.1149.0743-8.3711-8.7893-5.0055-18.5408 4.75-24.9382-5.5187 8.5887 2.06 17.2624 10.37 15.7273 15.2657-2.8199 33.7471-2.3737 47.4484.9724z" fill="#ea8a04"/><path d="m300.5407 367.4834-6.68 103.91h-268.6807l-6.68-103.91c0-22.2664 7.4221-44.5327 29.6885-59.377l66.7991-37.1106 44.5327 44.607 44.5328-44.607 66.7991 37.1106c20.3723 13.5374 29.6885 34.5236 29.6885 59.377z" fill="#eaf6ff"/><path d="m67.6344 409.27-3.86 62.1231h-38.5944l-6.68-103.91c0-19.4459 5.7152-38.9661 22.0435-53.5137a144.9411 144.9411 0 0 1 27.0909 95.3006z" fill="#c4e1ff"/><path d="m300.5407 367.4834-6.68 103.91h-38.5948l-3.86-62.1231a144.9405 144.9405 0 0 1 27.0909-95.3c15.5632 13.8681 22.0439 32.7486 22.0439 53.5131z" fill="#c4e1ff"/><path d="m248.5858 162.41c-.1367 9.7-7.8967 19.5945-18.5553 19.5945l-5.7152.9649c-5.7967 57.97-62.6555 83.6271-101.9056 53.0679-15.2152-11.8009-25.4578-30.8015-27.6844-53.0679l-5.7151-.9649c-15.2048 0-25.374-20.36-13.2116-34.9583 9.11-9.0986 14.3913-6.8292 27.0166-5.3442l16.2548-16.4768s48.3924 19.5945 70.1391-2.6719l27.0167 19.1488c12.2093-1.436 13.57-1.9669 17.5161-.8906 8.1638 2.3751 15.0668 11.2075 14.8439 21.5985z" fill="#ffd8a0"/><path d="m493.4416 382.9954-5.5666 88.3977h-194.0144l6.68-103.91a79.7278 79.7278 0 0 0 -5.4923-30.1338c12.3051-5.3 15.1678-9.23 37.333-31.3959a7.4823 7.4823 0 0 1 10.54 0l31.8407 31.8412 31.8408-31.8412a7.4821 7.4821 0 0 1 10.54 0c30.2129 30.2138 25.1176 26.198 50.6928 36.9625a41.31 41.31 0 0 1 25.606 40.0795z" fill="#fb4a59"/><path d="m349.0074 312.04c-2.3914 1.3278-8.0424 8.1375-22.8782 21.976a35.8362 35.8362 0 0 0 -11.3437 30.2878c1.1014 9.466 1.2 1.3143-5.6354 107.0894h-15.29l6.68-103.91a79.7278 79.7278 0 0 0 -5.4923-30.1338c10.1683-4.3792 11.5042-6.5315 20.3365-14.3989l16.9965-16.9969a7.4746 7.4746 0 0 1 10.54 0z" fill="#fa2739"/><path d="m493.4416 382.9954-5.5666 88.3977h-31.3212l-3.9338-46.9078a104.8017 104.8017 0 0 1 24.4191-76.3 41.02 41.02 0 0 1 16.4025 34.8101z" fill="#f82f40"/><path d="m196.631 236.0374v42.38l-37.111 37.1854-37.11-37.1849v-42.38a59.99 59.99 0 0 0 74.221-.0005z" fill="#ffe1b5"/><path d="m166.9425 308.1807-7.4222 7.4221-37.1103-37.1849v-42.38a58.0733 58.0733 0 0 0 14.8443 8.4614 82.0331 82.0331 0 0 0 23.9544 57.9335z" fill="#ffd79c"/><path d="m159.52 315.603-37.11 22.192-41.193-48.021 33.771-18.778z" fill="#c4e1ff"/><path d="m125.0816 281.09-62.0489 34.4385c-22.2663 14.8443-29.6885 37.1107-29.6885 59.377l6.2348 96.4876h-14.399l-6.68-103.91c0-22.2664 7.4221-44.5327 29.6885-59.377l66.7991-37.1106z" fill="#c6e7ff"/><path d="m33.3442 374.9055 6.2348 96.4876h-14.399l-6.68-103.91c0-19.4459 5.7152-38.9661 22.0435-53.5137a146.9585 146.9585 0 0 1 8.7585 13.6569c-11.7271 13.5825-15.9578 30.5052-15.9578 47.2792z" fill="#a0cfff"/><path d="m159.52 315.603-37.11 22.192-41.193-48.021 33.771-18.778z" fill="#c4e1ff"/><path d="m125.082 281.09-34.736 19.297-9.129-10.613 33.771-18.778z" fill="#a0cfff"/><path d="m237.824 289.774-41.193 48.021-37.111-22.192 44.533-44.607z" fill="#c4e1ff"/><path d="m85.299 389.75h37.111v14.844h-37.111z" fill="#094c66"/><path d="m85.299 389.75h14.844v14.844h-14.844z" fill="#063445"/><path d="m180.005 327.849-8.387 22.637h-24.196l-8.387-22.637 20.485-12.246z" fill="#f82f40"/><path d="m179.634 471.393h-40.228l8.016-120.907h24.196z" fill="#fb4a59"/><path d="m153.2454 346.1708 1.599 4.3157h-7.4222l-8.387-22.6374 20.4848-12.2463 3.7111 2.2266a23.5021 23.5021 0 0 0 -9.9857 28.3414z" fill="#f70c20"/><path d="m154.844 350.486-8.016 120.907h-7.422l8.016-120.907z" fill="#fa2739"/><path d="m374.7619 337.7949-29.6885 14.8443-29.6885-29.6885 16.9965-16.997a7.4823 7.4823 0 0 1 10.54 0z" fill="#f82f40"/><path d="m349.0074 312.04c-2.6851 1.4909-14.2444 14.4832-22.7122 21.8211l-10.91-10.91 16.9965-16.997a7.4823 7.4823 0 0 1 10.54 0z" fill="#f70c20"/><path d="m434.1389 322.9507-29.6889 29.6885-29.6885-14.8443 31.8408-31.8412a7.4821 7.4821 0 0 1 10.54 0z" fill="#f82f40"/><path d="m404.45 404.594h29.689v14.844h-29.689z" fill="#eaf6ff"/><path d="m404.45 404.594h7.422v14.844h-7.422z" fill="#c6e7ff"/><path d="m397.0283 284.5041v31.0244l-22.2664 22.2664-22.2664-22.2664v-31.0244a49.63 49.63 0 0 0 44.5328 0z" fill="#ffe1b5"/><path d="m382.184 330.3728-7.4221 7.4221-22.2664-22.2664v-31.0244a49.4639 49.4639 0 0 0 14.8445 4.6759v5.3555a50.6814 50.6814 0 0 0 14.844 35.8373z" fill="#ffd391"/><path d="m448.9831 217.4821c-.52 9.2034-7.1992 16.4031-15.4381 16.4031h-3.4882c-3.0694 31.4116-26.5892 55.8883-55.2949 55.8883-29.0153 0-52.26-24.832-55.2949-55.8883h-3.4882c-8.1646 0-14.9185-7.2-15.4381-16.4031-.557-10.3963 7.6663-18.5553 16.4769-18.5553l10.54 1.2617 13.434-13.8051s57.3729 23.0827 70.8812-4.4531l16.8484 18.2582c9.2724 0 20.747 7.3453 20.2619 17.2936z" fill="#ffd8a0"/><path d="m404.2275 280.1249c-32.7833 24.3212-80.1418 1.0275-84.7605-46.24h-3.4882c-8.1646 0-14.9185-7.2-15.4381-16.4031-.5711-10.6607 8.219-19.4254 17.8871-18.4067-7.7284 11.5934.1635 27.3877 12.3953 27.3877h3.4881c3.8364 39.2605 38.0938 63.766 69.9163 53.6621z" fill="#ffc97c"/><path d="m439.9284 203.38a23.3542 23.3542 0 0 0 -11.2075-3.1919l-16.8484-18.2581c-13.5083 27.5358-70.8812 4.4531-70.8812 4.4531l-13.434 13.8051c-9.952-1.1913-11.2246-1.8251-15.3638-.4453-4.2307-14.1761-16.7-67.9865 33.5481-82.534 17.3675-4.9727 41.86-4.75 58.1149-.0743 53.3651 14.9931 40.0054 72.7375 36.0719 86.2454z" fill="#fca62f"/><path d="m422.56 125.7448c-16.47-5.8131-43.2931-6.4624-61.9745-1.1135-43.7908 12.692-39.9311 55.1463-35.478 75.26-6.9961-.8344-8.7824-1.5259-12.9144-.1485-4.2307-14.1761-16.7-67.9865 33.5481-82.534 21.58-6.1783 56.8644-5.5488 76.8188 8.536z" fill="#fb970c"/><g fill="#fb3647"><path d="m367.34 367.483h14.844v14.844h-14.844z"/><path d="m367.34 397.172h14.844v14.844h-14.844z"/><path d="m367.34 426.86h14.844v14.844h-14.844z"/></g><path d="m246.0621 79.2822c0 14.9857-12.32 14.7028-12.32 29.6885v31.8408c-3.9948-1.09-4.7835-.607-17.5161.8906l-27.0167-19.1488c-21.7467 22.2664-70.1391 2.6719-70.1391 2.6719l-16.2545 16.4769c-10.1827-1.1977-13.34-2.1339-17.5161-.742v-40.6731c0-50.8692 63.6036-70.687 110.738-53.7361l36.0718 12.84a20.9652 20.9652 0 0 1 13.9527 19.8913z" fill="#606060"/><path d="m193.3652 238.3383c-40.2359 27.44-93.1033-.0014-98.64-55.3688l-5.7151-.9649c-15.2153 0-25.3836-20.337-13.2116-34.9583 5.3441-5.3442 9.3519-6.754 14.3251-6.754-11.3561 14.5471-1.2621 34.29 13.7307 34.29l5.7152.9649c4.8468 48.4694 46.0081 75.8482 83.7957 62.7911z" fill="#ffce87"/><path d="m168.3527 40.8357c-35.7 2.5976-68.2093 23.157-68.2093 59.4513v41.1184c-8.09-1.0392-11.0589-1.707-14.8443-.4453v-40.6731c0-41.3413 42.009-62.1232 83.0536-59.4513z" fill="#535353"/></svg>