<svg id="Capa_1" enable-background="new 0 0 512 512" height="512" viewBox="0 0 512 512" width="512" xmlns="http://www.w3.org/2000/svg"><g><path d="m356.261 512c-.864-2.862-1.454-5.757-2.571-8.584-15.952-40.342-54.301-66.416-97.69-66.416-7.383 0-14.573.802-21.53 2.26l72.74 72.74z"/><path d="m155.896 512h108.893l-60.707-60.707c-23.04 13.246-40.385 34.788-48.186 60.707z"/><path d="m387.477 512h63.523v-75c0-41.353-33.647-75-75-75h-218.789l53.41 53.41c14.249-5.129 29.385-8.41 45.379-8.41 55.781 0 105.073 33.516 125.581 85.386 2.549 6.445 4.384 13.011 5.896 19.614z"/><path d="m182.064 429.275-64.658-64.658c-32.335 8.329-56.406 37.485-56.406 72.383v75h63.625c7.872-34.437 28.788-63.871 57.439-82.725z"/><path d="m391 90c0-50.464-59.297-90-135-90s-135 39.536-135 90c0 11.867 3.442 21.63 8.661 30h252.678c5.219-8.37 8.661-18.133 8.661-30z"/><path d="m151 198.788v26.212c0 57.891 47.109 107 105 107s105-49.109 105-107v-26.212c-23.937 16.286-60.461 26.212-105 26.212s-81.063-9.926-105-26.212z"/><path d="m151 150c0 24.853 47.01 45 105 45s105-20.147 105-45z"/></g></svg>