<svg id="Layer_27" viewBox="0 0 100 100" xmlns="http://www.w3.org/2000/svg" data-name="Layer 27"><path d="m68.22 81.672c-.52-.99-1.12-1.93-1.78-2.82-.77-1.04-1.64-2-2.59-2.88-1.94-1.77-4.23-3.18-6.75-4.1-1.2-.45-2.45-.78-3.75-.99-1.09-.19-2.21-.28-3.35-.28s-2.26.09-3.35.28c-1.3.21-2.55.54-3.75.99-2.52.92-4.81 2.33-6.75 4.1-.95.88-1.82 1.84-2.59 2.88-.66.89-1.26 1.83-1.78 2.82 2.48 2.79 1.46 8.15-2.3 9.47 0 1.65.2 3.26.58 4.8h39.88c.38-1.54.58-3.15.58-4.8-3.76-1.32-4.78-6.68-2.3-9.47zm-18.22 13.62c-2.31 0-4.17-1.86-4.17-4.17 0-1.48.77-2.78 1.93-3.53.64-.42 1.42-.65 2.24-.65s1.6.23 2.24.65c1.16.75 1.93 2.05 1.93 3.53 0 2.31-1.86 4.17-4.17 4.17z" fill="#275e87"/><path d="m87.61 87.632v8.31h-14.58c.15-.74.27-1.5.36-2.27.04-.4.07-.8.09-1.2.02-.38.04-.76.03-1.14.03 0 .05-.01.08-.01l4.45-.74c-.96-5.48-2-11.01-6.32-10.6-.33.03-.64.08-.94.16-.63-1.21-1.38-2.35-2.21-3.42-.78-1.03-1.66-1.99-2.61-2.86-1.94-1.79-4.16-3.26-6.62-4.31l8.33-8.66-.02-.03c13.51 4.76 19.96 9 19.96 26.77z" fill="#275e87"/><path d="m54.167 91.125c0 2.307-1.86 4.167-4.167 4.167s-4.167-1.86-4.167-4.167c0-1.485.764-2.783 1.932-3.533.634-.418 1.413-.649 2.235-.649s1.601.231 2.235.649c1.168.75 1.932 2.048 1.932 3.533z" fill="#ffb310"/><path d="m57.69 48.541c-.29.18-.59.34-.89.49-2.06 1.03-4.37 1.6-6.8 1.6s-4.74-.57-6.8-1.6c-.3-.15-.6-.31-.89-.49v6.42l7.575 12.253.115.187.115-.187 7.575-12.253z" fill="#ffd3b3"/><path d="m29.48 91.167c0 1.65.2 3.26.58 4.8h-3.09c-.31-1.49-.48-3.03-.48-4.61 1.13.2 2.13.11 2.99-.19z" fill="#ffb310"/><path d="m73.51 91.357c0 .38-.01.76-.03 1.14-.02.4-.05.8-.09 1.2-.09.77-.21 1.53-.36 2.27h-3.09c.38-1.54.58-3.15.58-4.8.86.3 1.86.39 2.99.19z" fill="#ffb310"/><path d="m69.12 23.931c0 .86-.38 1.64-.99 2.21-.06.06-.12.1-.18.15-.35.28-.75.5-1.21.63 0 0-.24.06-.69.17-1.79.42-6.73 1.52-11.38 2.03-.57.07-1.16.12-1.72.17-1.02.07-2.02.12-2.95.1-.77.01-1.57-.01-2.41-.07-.38-.02-.77-.05-1.15-.09-.44-.03-.88-.08-1.32-.14-4.44-.5-9.14-1.54-11.17-2.02-.24-.06-.46-.12-.62-.15-.24-.07-.38-.11-.39-.11-.32-.13-.62-.31-.89-.51-.06-.06-.12-.1-.18-.16-.3-.29-.55-.63-.72-.99-.17-.38-.27-.79-.27-1.22 0-.23.03-.43.08-.64.04-.21.11-.4.19-.59v-.1c.27-.08.7-.19 1.25-.33 2.94-.73 9.62-2.14 17.6-2.24 7.98.1 14.66 1.51 17.6 2.24.55.14.98.25 1.25.33v.1c.08.19.15.38.19.59.05.21.08.41.08.64z" fill="#275e88"/><path d="m71.61 15.068c0 .797-.168 1.547-.487 2.231-.31.684-.752 1.294-1.309 1.809-.142.141-.301.272-.46.394s-.327.234-.504.338v2.756c-.274-.075-.699-.188-1.247-.328-2.946-.731-9.624-2.138-17.603-2.241-7.979.103-14.657 1.51-17.603 2.241-.548.141-.973.253-1.247.328v-2.756c-.831-.506-1.521-1.2-1.999-2.016-.487-.816-.761-1.753-.761-2.756 0-1.134 7.66-8.213 8.837-8.213l12.773-2.822 12.773 2.822c1.176 0 8.837 7.041 8.837 8.213z" fill="#3279af"/><path d="m55.092 16.546h-10.184c-.553 0-1-.448-1-1s.447-1 1-1h10.184c.553 0 1 .448 1 1s-.447 1-1 1z" fill="#ffb310"/><path d="m33.96 33.882h-1.68c-.91 0-1.72-.39-2.32-1.02-.59-.63-.96-1.51-.96-2.46 0-1.93 1.47-3.48 3.28-3.48h1.05c.16.03.38.09.62.15v6.55c0 .09 0 .18.01.26z" fill="#ffd3b3"/><path d="m66.05 27.092v6.53c0 .09 0 .18-.01.26-.08 6.33-3.43 11.81-8.35 14.66-.29.18-.59.34-.89.49-2.06 1.03-4.37 1.6-6.8 1.6s-4.74-.57-6.8-1.6c-.3-.15-.6-.31-.89-.49-4.92-2.85-8.27-8.33-8.35-14.66-.01-.08-.01-.17-.01-.26v-6.55c2.03.48 6.73 1.52 11.17 2.02.44.06.88.11 1.32.14.38.04.77.07 1.15.09.84.06 1.64.08 2.41.07.93.02 1.93-.03 2.95-.1.56-.05 1.15-.1 1.72-.17 4.65-.51 9.59-1.61 11.38-2.03z" fill="#ffd3b3"/><path d="m71 30.402c0 .95-.37 1.83-.96 2.46-.6.63-1.41 1.02-2.32 1.02h-1.68c.01-.08.01-.17.01-.26v-6.53c.45-.11.69-.17.69-.17h.98c1.81 0 3.28 1.55 3.28 3.48z" fill="#ffd3b3"/><g fill="#4589bd"><path d="m44.3 73.332 2.08-2.17.27-.28c-1.3.21-2.55.54-3.75.99z"/><path d="m50 67.402-7.69-12.44-9.96 5.9-.02.03 8.33 8.66c2.65-1.164 5.562-1.837 8.621-1.923.173-.005.345-.015.519-.017z"/><path d="m53.62 71.162 2.08 2.17 1.4-1.46c-1.2-.45-2.45-.78-3.75-.99z"/><path d="m67.65 60.862-9.96-5.9-7.69 12.44.2.21c.137 0 .271.01.407.013 3.1.073 6.051.749 8.733 1.927l8.33-8.66z"/></g><path d="m40.66 69.551c-2.46 1.05-4.68 2.52-6.62 4.31-.95.87-1.83 1.83-2.61 2.86-.83 1.07-1.58 2.21-2.21 3.42-.3-.08-.61-.13-.94-.16-4.32-.41-5.36 5.12-6.32 10.6l4.45.74c.03 0 .05.01.08.01 0 1.58.17 3.12.48 4.61h-14.58v-8.31c0-17.77 6.45-22.01 19.96-26.77l-.02.03z" fill="#275e87"/><path d="m29.48 91.142c-.86.3-1.86.39-2.99.19-.03 0-.05-.01-.08-.01l-4.45-.74c.96-5.48 2-11.01 6.32-10.6.33.03.64.08.94.16 1.09.27 1.95.82 2.56 1.53 2.48 2.79 1.46 8.15-2.3 9.47z" fill="#ffd3b3"/><path d="m78.04 90.582-4.45.74c-.03 0-.05.01-.08.01-1.13.2-2.13.11-2.99-.19-3.76-1.32-4.78-6.68-2.3-9.47.61-.71 1.47-1.26 2.56-1.53.3-.08.61-.13.94-.16 4.32-.41 5.36 5.12 6.32 10.6z" fill="#ffd3b3"/><g><g><path d="m45.4 32.286h-5.329c-.553 0-1-.448-1-1s.447-1 1-1h5.329c.553 0 1 .448 1 1s-.447 1-1 1z"/><path d="m42.735 36.5c-.553 0-1-.448-1-1v-1.429c0-.552.447-1 1-1s1 .448 1 1v1.429c0 .552-.447 1-1 1z"/></g><g><path d="m59.929 32.286h-5.329c-.553 0-1-.448-1-1s.447-1 1-1h5.329c.553 0 1 .448 1 1s-.447 1-1 1z"/><path d="m57.265 36.5c-.553 0-1-.448-1-1v-1.429c0-.552.447-1 1-1s1 .448 1 1v1.429c0 .552-.447 1-1 1z"/></g></g><path d="m50 46.239c-2.13 0-3.989-1.041-4.627-2.59-.21-.511.033-1.095.544-1.305.512-.209 1.096.034 1.306.544.27.655 1.334 1.351 2.777 1.351s2.508-.696 2.777-1.351c.211-.511.794-.754 1.306-.544.511.21.754.794.544 1.305-.638 1.549-2.497 2.59-4.627 2.59z"/><path d="m45.83 91.122c0-1.48.77-2.78 1.93-3.53l-11.61-11.62c-.95.88-1.82 1.84-2.59 2.88z" fill="#ffb310"/><path d="m52.24 87.591c1.16.75 1.93 2.05 1.93 3.53l12.27-12.27c-.77-1.04-1.64-2-2.59-2.88z" fill="#ffb310"/><path d="m50.2 67.612-.2-.21-.2.21c.07-.01.13-.01.2-.01s.13 0 .2.01z" fill="#275e87"/><path d="m49.281 67.628c.173-.005.345-.015.519-.017-.174.001-.346.012-.519.017z" fill="#ffb310"/><path d="m68.57 76.722c-.78-1.03-1.66-1.99-2.61-2.86-1.94-1.79-4.16-3.26-6.62-4.31-2.8-1.23-5.89-1.92-9.14-1.94-.07-.01-.13-.01-.2-.01s-.13 0-.2.01c-.174.001-.346.012-.519.017-3.059.086-5.971.759-8.621 1.923-2.46 1.05-4.68 2.52-6.62 4.31-.95.87-1.83 1.83-2.61 2.86-.83 1.07-1.58 2.21-2.21 3.42 1.09.27 1.95.82 2.56 1.53.52-.99 1.12-1.93 1.78-2.82.77-1.04 1.64-2 2.59-2.88 1.94-1.77 4.23-3.18 6.75-4.1 1.2-.45 2.45-.78 3.75-.99 1.09-.19 2.21-.28 3.35-.28s2.26.09 3.35.28c1.3.21 2.55.54 3.75.99 2.52.92 4.81 2.33 6.75 4.1.95.88 1.82 1.84 2.59 2.88.66.89 1.26 1.83 1.78 2.82.61-.71 1.47-1.26 2.56-1.53-.63-1.21-1.38-2.35-2.21-3.42z" fill="#ffb310"/></svg>