<?xml version="1.0" encoding="UTF-8" standalone="no"?>
<svg
   version="1.0"
   width="512.000000pt"
   height="512.000000pt"
   viewBox="0 0 512.000000 512.000000"
   preserveAspectRatio="xMidYMid meet"
   id="svg2"
   sodipodi:docname="perfil-icon.svg"
   inkscape:version="1.4 (86a8ad7, 2024-10-11)"
   inkscape:export-filename="perfil-icon.png"
   inkscape:export-xdpi="72.040985"
   inkscape:export-ydpi="72.040985"
   xmlns:inkscape="http://www.inkscape.org/namespaces/inkscape"
   xmlns:sodipodi="http://sodipodi.sourceforge.net/DTD/sodipodi-0.dtd"
   xmlns="http://www.w3.org/2000/svg"
   xmlns:svg="http://www.w3.org/2000/svg">
  <defs
     id="defs2" />
  <sodipodi:namedview
     id="namedview2"
     pagecolor="#505050"
     bordercolor="#eeeeee"
     borderopacity="1"
     inkscape:showpageshadow="0"
     inkscape:pageopacity="0"
     inkscape:pagecheckerboard="0"
     inkscape:deskcolor="#505050"
     inkscape:document-units="pt"
     inkscape:zoom="0.56616211"
     inkscape:cx="31.793014"
     inkscape:cy="523.7016"
     inkscape:window-width="1920"
     inkscape:window-height="991"
     inkscape:window-x="-9"
     inkscape:window-y="-9"
     inkscape:window-maximized="1"
     inkscape:current-layer="g2" />
  <rect
     style="fill:#d8d8d8;stroke-width:4.16701;fill-opacity:1"
     id="rect2"
     width="512"
     height="512"
     x="-1.7763568e-15"
     y="0"
     rx="2.6840274" />
  <g
     transform="matrix(0.09767008,0,0,-0.09767008,9.724086,512)"
     fill="#adadad"
     stroke="none"
     id="g2">
    <path
       d="m 2316.4076,4748.2007 c -279.8207,-34.7604 -513.584,-148.6005 -708.2419,-345.8654 -172.9327,-174.6707 -271.9996,-360.6385 -323.2711,-604.8299 -20.8563,-102.543 -20.8563,-331.9612 0,-434.5042 51.2715,-244.1914 151.2074,-431.0282 323.2711,-604.8299 174.6707,-176.4087 365.8526,-279.8207 612.651,-331.0922 101.674,-20.8563 330.2232,-20.8563 436.2422,0 234.6323,46.9264 429.2902,151.2074 603.0919,323.2711 175.5397,172.9327 279.8207,365.8526 331.0922,612.651 20.8562,102.543 20.8562,331.9612 0,434.5042 -33.8913,160.7666 -95.5909,309.367 -184.2298,443.1943 -54.7475,82.5558 -224.2042,252.8815 -305.0219,305.891 -139.9104,92.9839 -291.1179,156.4215 -439.7183,185.0988 -70.3897,13.9041 -285.0348,24.3322 -345.8654,16.5112 z"
       id="path1"
       style="stroke-width:0.869008" />
    <path
       d="M 2023,2238.6524 C 1463,2166.3006 958,1829.0131 633,1308.7179 442,1004.4144 333,644.78297 314,260.67959 308,142.57577 309,128.7438 329,87.247861 343,57.455909 363,36.175942 390,21.279966 429,0 444,0 2560,0 c 2116,0 2131,0 2170,21.279966 27,14.895976 47,36.175943 61,65.967895 20,41.495939 21,55.327909 15,173.431729 -26,524.55116 -214,984.19841 -556,1360.85381 -324,356.4395 -742,573.4951 -1199,623.503 -151,15.96 -889,11.704 -1028,-6.384 z"
       id="path2"
       style="stroke-width:1.0315" />
  </g>
</svg>
