<svg height="512pt" viewBox="-11 0 512 512.00006" width="512pt" xmlns="http://www.w3.org/2000/svg"><path d="m483.703125 512h-479.574219c-2.949218 0-4.945312-3.007812-3.800781-5.726562 39.964844-95.09375 133.976563-161.871094 243.589844-161.871094s203.625 66.777344 243.589843 161.871094c1.140626 2.71875-.855468 5.726562-3.804687 5.726562zm0 0" fill="#8cbafa"/><path d="m487.507812 506.273438c-39.964843-95.09375-133.976562-161.867188-243.589843-161.867188-5.363281 0-10.6875.164062-15.96875.480469 102.710937 6.125 189.613281 70.945312 227.621093 161.386719 1.144532 2.71875-.855468 5.726562-3.800781 5.726562h31.933594c2.949219 0 4.945313-3.007812 3.804687-5.726562zm0 0" fill="#5692d8"/><path d="m345.65625 448.117188h108.097656c-4.070312-5.316407-8.339844-10.46875-12.792968-15.453126h-100.128907c-6.949219-20.886718-14.988281-39.464843-23.960937-55.230468-6.0625-10.644532-12.46875-19.835938-19.160156-27.539063-8.886719-1.835937-17.9375-3.230469-27.125-4.152343 20.476562 14.425781 39.296874 44.914062 53.898437 86.921874h-161.132813c14.601563-42.011718 33.421876-72.496093 53.898438-86.921874-9.1875.925781-18.238281 2.316406-27.125 4.152343-6.691406 7.703125-13.101562 16.894531-19.160156 27.539063-8.976563 15.765625-17.011719 34.34375-23.964844 55.230468h-100.125c-4.453125 4.984376-8.722656 10.136719-12.792969 15.453126h108.097657c-5.742188 19.652343-10.570313 41.074218-14.390626 63.882812h15.675782c3.96875-23.097656 8.988281-44.527344 14.863281-63.882812h171.175781c5.878906 19.355468 10.894532 40.785156 14.863282 63.882812h15.675781c-3.820313-22.808594-8.648438-44.230469-14.386719-63.882812zm0 0" fill="#e9e9ea"/><path d="m447.511719 440.28125c-.019531-.027344-.046875-.054688-.066407-.082031-2.117187-2.550781-4.277343-5.0625-6.484374-7.535157h-31.933594c4.453125 4.984376 8.714844 10.136719 12.785156 15.453126h31.941406c-1.007812-1.316407-2.027344-2.625-3.0625-3.921876-.0625-.078124-.128906-.160156-.195312-.242187-.984375-1.230469-1.976563-2.457031-2.984375-3.671875zm0 0" fill="#c5c4cc"/><path d="m297.710938 349.894531c-2.152344-.445312-4.3125-.859375-6.480469-1.253906-.125-.023437-.246094-.042969-.371094-.066406-4.394531-.789063-8.824219-1.46875-13.289063-2.035157-.101562-.011718-.203124-.023437-.300781-.035156-2.222656-.28125-4.449219-.535156-6.6875-.761718 3 2.113281 5.960938 4.582031 8.882813 7.367187 9.464844 2.496094 18.714844 5.507813 27.734375 8.996094-3.09375-4.414063-6.257813-8.488281-9.488281-12.210938zm0 0" fill="#c5c4cc"/><path d="m390.871094 146.957031c0-80.777343-65.171875-146.332031-145.800782-146.95312475-79.941406-.61328125-146.238281 63.57812475-148.070312 143.50390575-1.46875 64.207032 38.253906 119.324219 94.582031 140.800782 4.59375 1.75 8.214844 5.386718 10.0625 9.941406l30.210938 74.605469c4.386719 10.835937 19.734375 10.835937 24.125 0l30.214843-74.605469c1.851563-4.582031 5.511719-8.207031 10.125-9.96875 55.28125-21.105469 94.550782-74.625 94.550782-137.324219zm0 0" fill="#ed5176"/><path d="m245.070312.00390625c-4.34375-.03125005-8.648437.13671875-12.90625.47656275 75.582032 6.074219 135.027344 69.328125 135.027344 146.476562 0 62.699219-39.269531 116.21875-94.550781 137.324219-4.617187 1.761719-8.273437 5.386719-10.128906 9.964844l-30.210938 74.605468c-.070312.171876-.148437.332032-.222656.496094 4.652344 10.332032 19.582031 10.171875 23.902344-.496094l30.210937-74.605468c1.855469-4.578125 5.511719-8.203125 10.128906-9.964844 55.28125-21.105469 94.550782-74.625 94.550782-137.324219 0-80.777343-65.171875-146.332031-145.800782-146.95312475zm0 0" fill="#ba365f"/><path d="m173.109375 95.460938v128.941406c0 3.789062 3.074219 6.863281 6.863281 6.863281h127.886719c3.792969 0 6.863281-3.074219 6.863281-6.863281v-128.941406zm0 0" fill="#e9e9ea"/><path d="m270.691406 95.460938v21.59375c0 14.789062 11.988282 26.777343 26.773438 26.777343 14.789062 0 26.777344-11.988281 26.777344-26.777343v-21.59375zm0 0" fill="#7fab38"/><path d="m163.589844 95.460938v21.59375c0 14.789062 11.988281 26.777343 26.777344 26.777343 14.785156 0 26.773437-11.988281 26.773437-26.777343v-21.59375zm0 0" fill="#7fab38"/><path d="m217.140625 95.460938v21.59375c0 14.789062 11.988281 26.777343 26.777344 26.777343 14.785156 0 26.773437-11.988281 26.773437-26.777343v-21.59375zm0 0" fill="#c5c4cc"/><path d="m184.414062 57.703125-20.824218 37.757813h160.652344l-20.824219-37.757813c-1.679688-3.046875-4.886719-4.941406-8.367188-4.941406h-102.269531c-3.480469 0-6.6875 1.894531-8.367188 4.941406zm0 0" fill="#c9ea6e"/><path d="m270.691406 95.460938h-53.546875l7.84375-42.703126h37.859375zm0 0" fill="#f0f0f2"/><path d="m220.238281 169.050781v62.214844h47.355469v-62.214844c0-1.027343-.832031-1.859375-1.855469-1.859375h-43.644531c-1.023438 0-1.855469.832032-1.855469 1.859375zm0 0" fill="#8cbafa"/><g fill="#ed5176"><path d="m428.683594 221.234375c-33.53125-.257813-61.339844 26.664063-62.105469 60.1875-.617187 26.929687 16.042969 50.050781 39.667969 59.054687 1.929687.734376 3.449218 2.261719 4.222656 4.171876l12.671875 31.289062c1.839844 4.546875 8.277344 4.546875 10.117187 0l12.671876-31.289062c.777343-1.921876 2.3125-3.441407 4.246093-4.179688 23.1875-8.855469 39.660157-31.300781 39.660157-57.601562 0-33.878907-27.335938-61.375-61.152344-61.632813zm-.484375 79.527344c-9.871094 0-17.875-8.003907-17.875-17.875 0-9.871094 8.003906-17.871094 17.875-17.871094 9.867187 0 17.871093 8 17.871093 17.871094 0 9.871093-8 17.875-17.871093 17.875zm0 0"/><path d="m63.636719 328.671875c-33.527344-.257813-61.335938 26.667969-62.105469 60.191406-.617188 26.929688 16.046875 50.046875 39.671875 59.054688 1.925781.734375 3.445313 2.257812 4.21875 4.171875l12.671875 31.289062c1.84375 4.546875 8.277344 4.546875 10.121094 0l12.671875-31.292968c.777343-1.917969 2.3125-3.441407 4.246093-4.179688 23.1875-8.851562 39.65625-31.300781 39.65625-57.597656 0-33.878906-27.332031-61.375-61.152343-61.636719zm-.484375 79.527344c-9.871094 0-17.871094-8-17.871094-17.871094s8.003906-17.875 17.871094-17.875c9.871094 0 17.875 8.003906 17.875 17.875s-8.003906 17.871094-17.875 17.871094zm0 0"/></g></svg>