<svg id="Layer_1" enable-background="new 0 0 512 512" height="512" viewBox="0 0 512 512" width="512" xmlns="http://www.w3.org/2000/svg"><path clip-rule="evenodd" d="m5.808 244.449c57.326-97.477 150.867-155.671 250.194-155.671 35.039 0 69.358 7.244 101.62 20.9l78.014-78.014c7.111-7.111 18.746-7.111 25.857 0 7.111 7.111 7.111 18.747 0 25.858l-69.555 69.556-49.974 49.974-25.85 25.848-122.158 122.158-25.849 25.849-50.451 50.451-78.977 78.977c-7.111 7.111-18.747 7.111-25.858 0-7.111-7.111-7.111-18.746 0-25.857l74.371-74.371c-31.399-24.894-59.121-56.815-81.384-94.665-7.785-13.215-7.785-27.773 0-40.993zm306.096-89.053c-16.781-8.602-35.784-13.46-55.902-13.46-67.828 0-123.008 55.185-123.008 123.013 0 20.116 4.859 39.118 13.459 55.898l27.803-27.803c-3.038-8.812-4.689-18.265-4.689-28.096 0-47.663 38.777-86.441 86.435-86.441 9.832 0 19.286 1.652 28.099 4.691zm110.744-7.315-58.428 58.429c9.43 17.394 14.79 37.302 14.79 58.439 0 67.823-55.179 123.007-123.007 123.007-21.137 0-41.044-5.361-58.438-14.791l-45.885 45.885c33.046 14.404 68.302 22.063 104.323 22.063 99.327 0 192.858-58.193 250.194-155.671 7.78-13.215 7.78-27.773 0-40.994-22.771-38.717-51.258-71.229-83.549-96.367zm-85.937 85.937-111.639 111.639c9.609 3.696 20.036 5.727 30.93 5.727 47.658 0 86.435-38.778 86.435-86.435 0-10.895-2.031-21.322-5.726-30.931z" fill-rule="evenodd"/></svg>