<svg id="Layer_1" enable-background="new 0 0 512 512" height="512" viewBox="0 0 512 512" width="512" xmlns="http://www.w3.org/2000/svg"><path clip-rule="evenodd" d="m5.808 235.503c57.326-97.477 150.867-155.671 250.194-155.671s192.869 58.194 250.194 155.671c7.78 13.22 7.78 27.778 0 40.993-57.336 97.478-150.867 155.671-250.194 155.671s-192.858-58.193-250.194-155.671c-7.785-13.215-7.785-27.772 0-40.993zm250.194 143.507c67.828 0 123.008-55.185 123.008-123.008 0-67.828-55.179-123.013-123.008-123.013-67.828 0-123.008 55.185-123.008 123.013 0 67.824 55.18 123.008 123.008 123.008zm0-209.448c-47.658 0-86.435 38.778-86.435 86.441 0 47.658 38.777 86.436 86.435 86.436s86.435-38.778 86.435-86.436c0-47.663-38.777-86.441-86.435-86.441z" fill-rule="evenodd"/></svg>